<svg xmlns="http://www.w3.org/2000/svg" width="96" height="112" viewBox="0 0 96 112" fill="none">
  
  <path d="M48 6 53 22 70 14 64 31 84 32 70 44 84 58 64 60 70 78 53 70 48 88 43 70 26 78 32 60 12 58 26 44 12 32 32 31 26 14 43 22 Z" fill="#FFD23F" stroke="#111" stroke-width="2.4" stroke-linejoin="round"></path>
  
  <circle cx="48" cy="50" r="30" fill="#FF6A5E" stroke="#111" stroke-width="4"></circle>
  
  <path d="M28 62 a24 24 0 0 0 40 0" fill="#E2231A" opacity=".35"></path>
  
  <path d="M19 44 C30 40 66 40 77 44 L72 56 C70 60 64 60 60 57 C54 53 42 53 36 57 C32 60 26 60 24 56 Z" fill="#1B6CD9" stroke="#111" stroke-width="3.5" stroke-linejoin="round"></path>
  
  <path d="M30 47 L42 47 L38 54 L31 54 Z" fill="#fff" stroke="#111" stroke-width="2"></path>
  <path d="M66 47 L54 47 L58 54 L65 54 Z" fill="#fff" stroke="#111" stroke-width="2"></path>
  
  <path d="M38 66 Q48 74 58 66" stroke="#111" stroke-width="4" stroke-linecap="round" fill="none"></path>
  <path d="M40 67 Q48 71 56 67" stroke="#fff" stroke-width="2" stroke-linecap="round" fill="none"></path>
  
  <path d="M50 28 L42 41 L47 41 L45 49 L54 37 L49 37 Z" fill="#FFD23F" stroke="#111" stroke-width="2" stroke-linejoin="round"></path>
</svg>