<svg xmlns="http://www.w3.org/2000/svg" width="24" height="24" viewBox="0 0 24 24" fill="none" stroke="currentColor" stroke-width="2" stroke-linecap="round" stroke-linejoin="round">
  <path d="M12.2 3 h-.4 a1.8 1.8 0 0 0 -1.8 1.8 v.5 a1.8 1.8 0 0 1 -1.1 1.66 a1.8 1.8 0 0 1 -1.95 -.36 l-.36 -.36 a1.8 1.8 0 0 0 -2.54 0 l-.28 .28 a1.8 1.8 0 0 0 0 2.54 l.36 .36 a1.8 1.8 0 0 1 .36 1.95 a1.8 1.8 0 0 1 -1.66 1.1 h-.5 a1.8 1.8 0 0 0 -1.8 1.8 v.4 a1.8 1.8 0 0 0 1.8 1.8 h.5 a1.8 1.8 0 0 1 1.66 1.1 a1.8 1.8 0 0 1 -.36 1.95 l-.36 .36 a1.8 1.8 0 0 0 0 2.54 l.28 .28 a1.8 1.8 0 0 0 2.54 0 l.36 -.36 a1.8 1.8 0 0 1 1.95 -.36 a1.8 1.8 0 0 1 1.1 1.66 v.5 a1.8 1.8 0 0 0 1.8 1.8 h.4 a1.8 1.8 0 0 0 1.8 -1.8 v-.5 a1.8 1.8 0 0 1 1.1 -1.66 a1.8 1.8 0 0 1 1.95 .36 l.36 .36 a1.8 1.8 0 0 0 2.54 0 l.28 -.28 a1.8 1.8 0 0 0 0 -2.54 l-.36 -.36 a1.8 1.8 0 0 1 -.36 -1.95 a1.8 1.8 0 0 1 1.66 -1.1 h.5 a1.8 1.8 0 0 0 1.8 -1.8 v-.4 a1.8 1.8 0 0 0 -1.8 -1.8 h-.5 a1.8 1.8 0 0 1 -1.66 -1.1 a1.8 1.8 0 0 1 .36 -1.95 l.36 -.36 a1.8 1.8 0 0 0 0 -2.54 l-.28 -.28 a1.8 1.8 0 0 0 -2.54 0 l-.36 .36 a1.8 1.8 0 0 1 -1.95 .36 a1.8 1.8 0 0 1 -1.1 -1.66 v-.5 a1.8 1.8 0 0 0 -1.8 -1.8 Z"></path>
  <circle cx="12" cy="12" r="3"></circle>
</svg>